<svg width="28" height="29" viewBox="0 0 28 29" fill="none" xmlns="http://www.w3.org/2000/svg">
<g id="Component 7">
<path id="Vector" d="M10.5 17.5625C11.2249 17.5625 11.8125 16.9749 11.8125 16.25C11.8125 15.5251 11.2249 14.9375 10.5 14.9375C9.77513 14.9375 9.1875 15.5251 9.1875 16.25C9.1875 16.9749 9.77513 17.5625 10.5 17.5625Z" fill="white"/>
<path id="Vector_2" d="M17.5 17.5625C18.2249 17.5625 18.8125 16.9749 18.8125 16.25C18.8125 15.5251 18.2249 14.9375 17.5 14.9375C16.7751 14.9375 16.1875 15.5251 16.1875 16.25C16.1875 16.9749 16.7751 17.5625 17.5 17.5625Z" fill="white"/>
<path id="Vector (Stroke)" fill-rule="evenodd" clip-rule="evenodd" d="M13.9935 9.25001C12.0967 9.23598 10.2093 9.51769 8.39919 10.085C7.93805 10.2295 7.44707 9.97285 7.30255 9.51172C7.15803 9.05059 7.41469 8.55961 7.87582 8.41508C9.85736 7.79405 11.9235 7.48533 14 7.50001C16.0765 7.48533 18.1426 7.79405 20.1242 8.41508C20.5853 8.55961 20.842 9.05059 20.6975 9.51172C20.5529 9.97285 20.0619 10.2295 19.6008 10.085C17.7907 9.51769 15.9033 9.23598 14.0065 9.25001H13.9935Z" fill="white"/>
<path id="Vector (Stroke)_2" fill-rule="evenodd" clip-rule="evenodd" d="M7.30255 19.4883C7.44707 19.0272 7.93805 18.7705 8.39919 18.915C10.2093 19.4823 12.0967 19.764 13.9935 19.75H14.0065C15.9033 19.764 17.7907 19.4823 19.6008 18.915C20.0619 18.7705 20.5529 19.0272 20.6975 19.4883C20.842 19.9494 20.5853 20.4404 20.1242 20.5849C18.1426 21.206 16.0765 21.5147 14 21.5C11.9235 21.5147 9.85736 21.206 7.87582 20.5849C7.41469 20.4404 7.15803 19.9494 7.30255 19.4883Z" fill="white"/>
<path id="Vector (Stroke)_3" fill-rule="evenodd" clip-rule="evenodd" d="M17.6925 4.70969C18.0691 4.49733 18.5107 4.43097 18.9331 4.52323C20.0859 4.77308 21.2147 5.12358 22.3062 5.57071C22.5519 5.66546 22.7726 5.81547 22.9512 6.00921C23.1316 6.20504 23.2641 6.44013 23.338 6.69588L27.0444 19.0722C27.141 19.3946 27.1433 19.738 27.0508 20.0617C26.9583 20.3853 26.775 20.6757 26.5226 20.8984L26.5181 20.9024C24.7091 22.4764 22.2579 23.6679 19.4737 24.3504C19.0869 24.4489 18.6779 24.4106 18.3161 24.2418C17.9558 24.0736 17.6646 23.7864 17.4915 23.4288L16.1718 20.8112C15.9542 20.3796 16.1277 19.8535 16.5592 19.6359C16.9907 19.4184 17.5169 19.5918 17.7344 20.0233L19.0579 22.6483L19.0588 22.6503C21.6295 22.0199 23.8119 20.9374 25.3694 19.5821L25.9437 20.2422L25.3648 19.5861C25.3664 19.5847 25.3676 19.5829 25.3681 19.5809C25.3687 19.5789 25.3687 19.5768 25.3681 19.5748L21.6615 7.1977C21.6584 7.19647 21.6553 7.19522 21.6522 7.19395C20.6522 6.78368 19.618 6.46223 18.5616 6.23334L18.5597 6.23292C18.557 6.23235 18.5543 6.23276 18.552 6.23408C18.5498 6.23527 18.5482 6.23712 18.5473 6.23933L17.6855 8.84654C17.5338 9.30538 17.0389 9.55439 16.5801 9.40272C16.1212 9.25106 15.8722 8.75615 16.0239 8.29732L16.8905 5.67565C17.03 5.26606 17.3155 4.92221 17.6925 4.70969Z" fill="white"/>
<path id="Vector (Stroke)_4" fill-rule="evenodd" clip-rule="evenodd" d="M9.448 6.23408C9.44566 6.23276 9.44292 6.23235 9.44029 6.23292L9.43839 6.23334C8.38197 6.46223 7.34775 6.78368 6.34771 7.19395C6.34462 7.19522 6.34153 7.19647 6.33843 7.1977L2.63194 19.5745C2.63134 19.5765 2.63126 19.5789 2.63183 19.5809C2.63235 19.5827 2.63332 19.5844 2.63465 19.5857C4.19188 20.9393 6.37272 22.0204 8.94115 22.6503L8.94209 22.6483L10.2655 20.0233C10.4831 19.5918 11.0093 19.4184 11.4408 19.6359C11.8723 19.8535 12.0457 20.3797 11.8282 20.8112L10.5084 23.4288C10.3353 23.7864 10.0441 24.0736 9.68381 24.2418C9.32203 24.4106 8.91302 24.4489 8.52628 24.3504C5.74209 23.6679 3.29089 22.4764 1.48186 20.9023L1.47732 20.8984C1.22492 20.6757 1.04163 20.3853 0.949163 20.0617C0.856715 19.7381 0.858916 19.3948 0.955504 19.0725C0.955479 19.0726 0.955528 19.0724 0.955504 19.0725L4.66191 6.6959C4.73587 6.44014 4.8683 6.20504 5.04877 6.00921C5.22732 5.81546 5.44802 5.66545 5.69372 5.57071C6.7856 5.12346 7.91463 4.77288 9.06781 4.52302C9.48993 4.43107 9.93114 4.49749 10.3075 4.70969C10.6844 4.92221 10.9699 5.26607 11.1095 5.67566L11.112 5.68324L11.9761 8.29732C12.1277 8.75615 11.8787 9.25106 11.4199 9.40272C10.9611 9.55439 10.4662 9.30538 10.3145 8.84654L9.4527 6.23932C9.45176 6.23711 9.45011 6.23527 9.448 6.23408Z" fill="white"/>
<path id="Vector_3" d="M10.5 17.5625C11.2249 17.5625 11.8125 16.9749 11.8125 16.25C11.8125 15.5251 11.2249 14.9375 10.5 14.9375C9.77513 14.9375 9.1875 15.5251 9.1875 16.25C9.1875 16.9749 9.77513 17.5625 10.5 17.5625Z" fill="white"/>
<path id="Vector_4" d="M17.5 17.5625C18.2249 17.5625 18.8125 16.9749 18.8125 16.25C18.8125 15.5251 18.2249 14.9375 17.5 14.9375C16.7751 14.9375 16.1875 15.5251 16.1875 16.25C16.1875 16.9749 16.7751 17.5625 17.5 17.5625Z" fill="white"/>
<path id="Vector (Stroke)_5" fill-rule="evenodd" clip-rule="evenodd" d="M13.9935 9.25001C12.0967 9.23598 10.2093 9.51769 8.39919 10.085C7.93805 10.2295 7.44707 9.97285 7.30255 9.51172C7.15803 9.05059 7.41469 8.55961 7.87582 8.41508C9.85736 7.79405 11.9235 7.48533 14 7.50001C16.0765 7.48533 18.1426 7.79405 20.1242 8.41508C20.5853 8.55961 20.842 9.05059 20.6975 9.51172C20.5529 9.97285 20.0619 10.2295 19.6008 10.085C17.7907 9.51769 15.9033 9.23598 14.0065 9.25001H13.9935Z" fill="white"/>
<path id="Vector (Stroke)_6" fill-rule="evenodd" clip-rule="evenodd" d="M7.30255 19.4883C7.44707 19.0272 7.93805 18.7705 8.39919 18.915C10.2093 19.4823 12.0967 19.764 13.9935 19.75H14.0065C15.9033 19.764 17.7907 19.4823 19.6008 18.915C20.0619 18.7705 20.5529 19.0272 20.6975 19.4883C20.842 19.9494 20.5853 20.4404 20.1242 20.5849C18.1426 21.206 16.0765 21.5147 14 21.5C11.9235 21.5147 9.85736 21.206 7.87582 20.5849C7.41469 20.4404 7.15803 19.9494 7.30255 19.4883Z" fill="white"/>
<path id="Vector (Stroke)_7" fill-rule="evenodd" clip-rule="evenodd" d="M17.6925 4.70969C18.0691 4.49733 18.5107 4.43097 18.9331 4.52323C20.0859 4.77308 21.2147 5.12358 22.3062 5.57071C22.5519 5.66546 22.7726 5.81547 22.9512 6.00921C23.1316 6.20504 23.2641 6.44013 23.338 6.69588L27.0444 19.0722C27.141 19.3946 27.1433 19.738 27.0508 20.0617C26.9583 20.3853 26.775 20.6757 26.5226 20.8984L26.5181 20.9024C24.7091 22.4764 22.2579 23.6679 19.4737 24.3504C19.0869 24.4489 18.6779 24.4106 18.3161 24.2418C17.9558 24.0736 17.6646 23.7864 17.4915 23.4288L16.1718 20.8112C15.9542 20.3796 16.1277 19.8535 16.5592 19.6359C16.9907 19.4184 17.5169 19.5918 17.7344 20.0233L19.0579 22.6483L19.0588 22.6503C21.6295 22.0199 23.8119 20.9374 25.3694 19.5821L25.9437 20.2422L25.3648 19.5861C25.3664 19.5847 25.3676 19.5829 25.3681 19.5809C25.3687 19.5789 25.3687 19.5768 25.3681 19.5748L21.6615 7.1977C21.6584 7.19647 21.6553 7.19522 21.6522 7.19395C20.6522 6.78368 19.618 6.46223 18.5616 6.23334L18.5597 6.23292C18.557 6.23235 18.5543 6.23276 18.552 6.23408C18.5498 6.23527 18.5482 6.23712 18.5473 6.23933L17.6855 8.84654C17.5338 9.30538 17.0389 9.55439 16.5801 9.40272C16.1212 9.25106 15.8722 8.75615 16.0239 8.29732L16.8905 5.67565C17.03 5.26606 17.3155 4.92221 17.6925 4.70969Z" fill="white"/>
<path id="Vector (Stroke)_8" fill-rule="evenodd" clip-rule="evenodd" d="M9.448 6.23408C9.44566 6.23276 9.44292 6.23235 9.44029 6.23292L9.43839 6.23334C8.38197 6.46223 7.34775 6.78368 6.34771 7.19395C6.34462 7.19522 6.34153 7.19647 6.33843 7.1977L2.63194 19.5745C2.63134 19.5765 2.63126 19.5789 2.63183 19.5809C2.63235 19.5827 2.63332 19.5844 2.63465 19.5857C4.19188 20.9393 6.37272 22.0204 8.94115 22.6503L8.94209 22.6483L10.2655 20.0233C10.4831 19.5918 11.0093 19.4184 11.4408 19.6359C11.8723 19.8535 12.0457 20.3797 11.8282 20.8112L10.5084 23.4288C10.3353 23.7864 10.0441 24.0736 9.68381 24.2418C9.32203 24.4106 8.91302 24.4489 8.52628 24.3504C5.74209 23.6679 3.29089 22.4764 1.48186 20.9023L1.47732 20.8984C1.22492 20.6757 1.04163 20.3853 0.949163 20.0617C0.856715 19.7381 0.858916 19.3948 0.955504 19.0725C0.955479 19.0726 0.955528 19.0724 0.955504 19.0725L4.66191 6.6959C4.73587 6.44014 4.8683 6.20504 5.04877 6.00921C5.22732 5.81546 5.44802 5.66545 5.69372 5.57071C6.7856 5.12346 7.91463 4.77288 9.06781 4.52302C9.48993 4.43107 9.93114 4.49749 10.3075 4.70969C10.6844 4.92221 10.9699 5.26607 11.1095 5.67566L11.112 5.68324L11.9761 8.29732C12.1277 8.75615 11.8787 9.25106 11.4199 9.40272C10.9611 9.55439 10.4662 9.30538 10.3145 8.84654L9.4527 6.23932C9.45176 6.23711 9.45011 6.23527 9.448 6.23408Z" fill="white"/>
</g>
</svg>
