<svg width="28" height="29" viewBox="0 0 28 29" fill="none" xmlns="http://www.w3.org/2000/svg">
<g id="Component 5">
<path id="Vector (Stroke)" fill-rule="evenodd" clip-rule="evenodd" d="M14 11C12.067 11 10.5 12.567 10.5 14.5C10.5 16.433 12.067 18 14 18C15.933 18 17.5 16.433 17.5 14.5C17.5 12.567 15.933 11 14 11ZM8.75 14.5C8.75 11.6005 11.1005 9.25 14 9.25C16.8995 9.25 19.25 11.6005 19.25 14.5C19.25 17.3995 16.8995 19.75 14 19.75C11.1005 19.75 8.75 17.3995 8.75 14.5Z" fill="white"/>
<path id="Vector (Stroke)_2" fill-rule="evenodd" clip-rule="evenodd" d="M9.1875 5.3125C6.77125 5.3125 4.8125 7.27125 4.8125 9.6875V19.3125C4.8125 21.7287 6.77125 23.6875 9.1875 23.6875H18.8125C21.2287 23.6875 23.1875 21.7287 23.1875 19.3125V9.6875C23.1875 7.27125 21.2287 5.3125 18.8125 5.3125H9.1875ZM3.0625 9.6875C3.0625 6.30476 5.80476 3.5625 9.1875 3.5625H18.8125C22.1952 3.5625 24.9375 6.30476 24.9375 9.6875V19.3125C24.9375 22.6952 22.1952 25.4375 18.8125 25.4375H9.1875C5.80476 25.4375 3.0625 22.6952 3.0625 19.3125V9.6875Z" fill="white"/>
<path id="Vector" d="M19.6875 10.125C20.4124 10.125 21 9.53737 21 8.8125C21 8.08763 20.4124 7.5 19.6875 7.5C18.9626 7.5 18.375 8.08763 18.375 8.8125C18.375 9.53737 18.9626 10.125 19.6875 10.125Z" fill="white"/>
</g>
</svg>
