<svg width="28" height="29" viewBox="0 0 28 29" fill="none" xmlns="http://www.w3.org/2000/svg">
<g id="Component 4">
<path id="Vector (Stroke)" fill-rule="evenodd" clip-rule="evenodd" d="M3.0625 5.3125C3.0625 4.346 3.846 3.5625 4.8125 3.5625H23.1875C24.154 3.5625 24.9375 4.346 24.9375 5.3125V23.6875C24.9375 24.654 24.154 25.4375 23.1875 25.4375H4.8125C3.846 25.4375 3.0625 24.654 3.0625 23.6875V5.3125ZM23.1875 5.3125H4.8125V23.6875H23.1875V5.3125Z" fill="white"/>
<path id="Vector (Stroke)_2" fill-rule="evenodd" clip-rule="evenodd" d="M13.125 11.875C13.6082 11.875 14 12.2668 14 12.75V19.75C14 20.2332 13.6082 20.625 13.125 20.625C12.6418 20.625 12.25 20.2332 12.25 19.75V12.75C12.25 12.2668 12.6418 11.875 13.125 11.875Z" fill="white"/>
<path id="Vector (Stroke)_3" fill-rule="evenodd" clip-rule="evenodd" d="M9.625 11.875C10.1082 11.875 10.5 12.2668 10.5 12.75V19.75C10.5 20.2332 10.1082 20.625 9.625 20.625C9.14175 20.625 8.75 20.2332 8.75 19.75V12.75C8.75 12.2668 9.14175 11.875 9.625 11.875Z" fill="white"/>
<path id="Vector (Stroke)_4" fill-rule="evenodd" clip-rule="evenodd" d="M16.1875 13.625C15.6073 13.625 15.0509 13.8555 14.6407 14.2657C14.2305 14.6759 14 15.2323 14 15.8125C14 16.2957 13.6082 16.6875 13.125 16.6875C12.6418 16.6875 12.25 16.2957 12.25 15.8125C12.25 14.7682 12.6648 13.7667 13.4033 13.0283C14.1417 12.2898 15.1432 11.875 16.1875 11.875C17.2318 11.875 18.2333 12.2898 18.9717 13.0283C19.7102 13.7667 20.125 14.7682 20.125 15.8125V19.75C20.125 20.2332 19.7332 20.625 19.25 20.625C18.7668 20.625 18.375 20.2332 18.375 19.75V15.8125C18.375 15.2323 18.1445 14.6759 17.7343 14.2657C17.3241 13.8555 16.7677 13.625 16.1875 13.625Z" fill="white"/>
<path id="Vector" d="M9.625 10.5625C10.3499 10.5625 10.9375 9.97487 10.9375 9.25C10.9375 8.52513 10.3499 7.9375 9.625 7.9375C8.90013 7.9375 8.3125 8.52513 8.3125 9.25C8.3125 9.97487 8.90013 10.5625 9.625 10.5625Z" fill="white"/>
</g>
</svg>
