<svg width="28" height="29" viewBox="0 0 28 29" fill="none" xmlns="http://www.w3.org/2000/svg">
<g id="Component 3">
<path id="Vector (Stroke)" fill-rule="evenodd" clip-rule="evenodd" d="M23.5165 3.66544C23.812 3.55089 24.1331 3.51873 24.4454 3.57239C24.7578 3.62606 25.0497 3.76355 25.29 3.97017C25.5303 4.1768 25.71 4.4448 25.8099 4.74558C25.9098 5.04635 25.9261 5.36861 25.8571 5.67794L25.8561 5.68285L25.856 5.68284L21.7435 23.6422L21.7434 23.6427C21.6755 23.9385 21.5318 24.2116 21.3265 24.4351C21.1211 24.6586 20.8611 24.8249 20.5721 24.9176C20.283 25.0102 19.9749 25.0261 19.6778 24.9637C19.3814 24.9014 19.1062 24.7632 18.8792 24.5626C18.8787 24.5622 18.8783 24.5618 18.8778 24.5614L9.22297 16.0665L3.62308 14.9423L3.61948 14.9416C1.93748 14.5965 1.67901 12.2405 3.32292 11.5963L3.64217 12.411L3.32232 11.5965L3.32292 11.5963L23.5129 3.66684L23.5165 3.66544ZM3.96694 13.2235C3.96709 13.2245 3.96727 13.2255 3.96747 13.2264C3.9683 13.2266 3.96921 13.2268 3.97018 13.2271C3.97049 13.2271 3.97081 13.2272 3.97113 13.2273L9.79721 14.3968C9.94776 14.4271 10.0877 14.4964 10.203 14.5978L20.0358 23.2494L20.0378 23.2511L24.1491 5.29712L3.96694 13.2235ZM3.9586 13.2237C3.9586 13.2237 3.95862 13.2237 3.95864 13.2237L3.9586 13.2237Z" fill="white"/>
<path id="Vector (Stroke)_2" fill-rule="evenodd" clip-rule="evenodd" d="M25.2203 3.99091C25.5032 4.38267 25.415 4.92962 25.0233 5.21257L10.1373 15.9641C9.74557 16.2471 9.19862 16.1589 8.91567 15.7671C8.63272 15.3754 8.72093 14.8284 9.11268 14.5455L23.9986 3.79391C24.3904 3.51096 24.9373 3.59916 25.2203 3.99091Z" fill="white"/>
<path id="Vector (Stroke)_3" fill-rule="evenodd" clip-rule="evenodd" d="M9.625 14.3796C10.1082 14.3796 10.5 14.7714 10.5 15.2546L10.5 22.3735L10.5047 22.3687L13.9172 18.9562C14.2589 18.6145 14.8129 18.6145 15.1547 18.9562C15.4964 19.2979 15.4964 19.852 15.1547 20.1937L11.7441 23.6042C11.501 23.8499 11.1906 24.0182 10.852 24.0877C10.5121 24.1575 10.1591 24.1247 9.83785 23.9934C9.51664 23.8621 9.24171 23.6383 9.04801 23.3503C8.85431 23.0624 8.75058 22.7234 8.75 22.3764L8.75 15.2546C8.75 14.7714 9.14175 14.3796 9.625 14.3796Z" fill="white"/>
</g>
</svg>
