<svg width="28" height="29" viewBox="0 0 28 29" fill="none" xmlns="http://www.w3.org/2000/svg">
<g id="Component 2">
<path id="Vector (Stroke)" fill-rule="evenodd" clip-rule="evenodd" d="M11.8371 10.2285C12.1216 10.0763 12.4669 10.093 12.7354 10.272L17.9854 13.772C18.2288 13.9342 18.375 14.2074 18.375 14.5C18.375 14.7926 18.2288 15.0658 17.9854 15.228L12.7354 18.728C12.4669 18.907 12.1216 18.9237 11.8371 18.7715C11.5526 18.6192 11.375 18.3227 11.375 18V11C11.375 10.6773 11.5526 10.3808 11.8371 10.2285ZM13.125 12.635V16.365L15.9226 14.5L13.125 12.635Z" fill="white"/>
<path id="Vector (Stroke)_2" fill-rule="evenodd" clip-rule="evenodd" d="M13.9987 4.91874L13.9839 4.9187L13.929 4.91873C13.8813 4.91883 13.8119 4.91918 13.7227 4.92013C13.5445 4.92202 13.2874 4.92631 12.968 4.93589C12.3298 4.95505 11.4402 4.99543 10.4332 5.08045C8.44141 5.24861 5.90562 5.59762 3.95332 6.34357L3.94046 6.3486C3.55697 6.50211 3.21492 6.74359 2.94191 7.05358C2.66889 7.36356 2.47255 7.73337 2.36872 8.13318L2.36787 8.13648C2.09539 9.20271 1.75 11.1799 1.75 14.5C1.75 17.8201 2.09539 19.7973 2.36787 20.8635L2.36872 20.8668C2.47255 21.2666 2.66889 21.6364 2.94191 21.9464C3.21492 22.2564 3.55697 22.4979 3.94046 22.6514L3.95332 22.6564C5.90562 23.4024 8.44141 23.7514 10.4332 23.9196C11.4402 24.0046 12.3298 24.045 12.968 24.0641C13.2874 24.0737 13.5445 24.078 13.7227 24.0799C13.8119 24.0808 13.8813 24.0812 13.929 24.0813L13.9839 24.0813L13.9987 24.0813H14.0013L14.0161 24.0813L14.071 24.0813C14.1187 24.0812 14.1881 24.0808 14.2773 24.0799C14.4555 24.078 14.7126 24.0737 15.032 24.0641C15.6702 24.045 16.5598 24.0046 17.5668 23.9196C19.5586 23.7514 22.0944 23.4024 24.0467 22.6564L24.0595 22.6514C24.443 22.4979 24.7851 22.2564 25.0581 21.9464C25.3311 21.6364 25.5274 21.2666 25.6313 20.8668L25.6321 20.8635C25.9046 19.7973 26.25 17.8201 26.25 14.5C26.25 11.1799 25.9046 9.20271 25.6321 8.13648L25.6313 8.13318C25.5274 7.73337 25.3311 7.36356 25.0581 7.05358C24.7851 6.74359 24.443 6.50211 24.0595 6.3486L24.0467 6.34357C22.0944 5.59762 19.5586 5.24861 17.5668 5.08045C16.5598 4.99543 15.6702 4.95505 15.032 4.93589C14.7126 4.92631 14.4555 4.92202 14.2773 4.92013C14.1881 4.91918 14.1187 4.91883 14.071 4.91873L14.0161 4.9187L14.0013 4.91874H13.9987ZM13.9954 22.3313L14.0047 22.3312L14.0075 22.3313L14.019 22.3313L14.0671 22.3313C14.1101 22.3312 14.1747 22.3309 14.2587 22.33C14.4268 22.3282 14.6725 22.3241 14.9795 22.3149C15.5939 22.2965 16.451 22.2575 17.4196 22.1758C19.3761 22.0106 21.7036 21.6767 23.4147 21.0245C23.5413 20.9728 23.6544 20.8925 23.7448 20.7898C23.8363 20.686 23.9021 20.5622 23.9371 20.4283C24.1677 19.5251 24.5 17.6964 24.5 14.5C24.5 11.3036 24.1677 9.47486 23.9371 8.57168C23.9021 8.43784 23.8363 8.31405 23.7448 8.21022C23.6544 8.1075 23.5413 8.02716 23.4147 7.97548C21.7036 7.32329 19.3761 6.98943 17.4196 6.82424C16.451 6.74247 15.5939 6.70355 14.9795 6.68511C14.6725 6.67589 14.4268 6.67181 14.2587 6.67003C14.1747 6.66914 14.1101 6.66882 14.0671 6.66872L14.019 6.6687L14.0075 6.66873L14.005 6.66874L13.9953 6.66879L13.9925 6.66873L13.981 6.6687L13.9329 6.66872C13.8899 6.66882 13.8253 6.66914 13.7413 6.67003C13.5732 6.67181 13.3275 6.67589 13.0205 6.68511C12.4061 6.70355 11.549 6.74247 10.5804 6.82424C8.62391 6.98943 6.29641 7.3233 4.58534 7.97548C4.45866 8.02717 4.34564 8.1075 4.25518 8.21022C4.16374 8.31404 4.09788 8.43784 4.06289 8.57168C3.83227 9.47487 3.5 11.3036 3.5 14.5C3.5 17.6964 3.83227 19.5251 4.06289 20.4283C4.09788 20.5622 4.16373 20.686 4.25518 20.7898C4.34564 20.8925 4.45866 20.9728 4.58533 21.0245C6.29641 21.6767 8.62391 22.0106 10.5804 22.1758C11.549 22.2575 12.4061 22.2965 13.0205 22.3149C13.3275 22.3241 13.5732 22.3282 13.7413 22.33C13.8253 22.3309 13.8899 22.3312 13.9329 22.3313L13.981 22.3313L13.9925 22.3313L13.9954 22.3313Z" fill="white"/>
</g>
</svg>
