<svg width="32" height="32" viewBox="0 0 32 32" fill="none" xmlns="http://www.w3.org/2000/svg">
<g id="Component 1">
<path id="Vector (Stroke)" fill-rule="evenodd" clip-rule="evenodd" d="M17.8162 13.1517C18.2917 12.8707 18.9049 13.0284 19.1859 13.5039L26.8609 26.4914C27.1419 26.9668 26.9842 27.58 26.5087 27.861C26.0333 28.142 25.4201 27.9843 25.1391 27.5089L17.4641 14.5214C17.1831 14.0459 17.3408 13.4327 17.8162 13.1517Z" fill="white"/>
<path id="Vector (Stroke)_2" fill-rule="evenodd" clip-rule="evenodd" d="M12.4912 4.13907C12.9666 3.85803 13.5798 4.01561 13.8609 4.49104L16.8609 9.56604C17.1419 10.0415 16.9843 10.6547 16.5089 10.9358C16.0335 11.2168 15.4202 11.0592 15.1392 10.5838L12.1392 5.50879C11.8582 5.03336 12.0157 4.42011 12.4912 4.13907Z" fill="white"/>
<path id="Vector (Stroke)_3" fill-rule="evenodd" clip-rule="evenodd" d="M7.69807 24.1401C8.17296 24.422 8.32935 25.0356 8.04739 25.5105L6.85989 27.5105C6.57793 27.9853 5.96438 28.1417 5.48949 27.8598C5.01461 27.5778 4.85822 26.9643 5.14018 26.4894L6.32768 24.4894C6.60964 24.0145 7.22319 23.8581 7.69807 24.1401Z" fill="white"/>
<path id="Vector (Stroke)_4" fill-rule="evenodd" clip-rule="evenodd" d="M19.5085 4.13888C19.984 4.41974 20.1419 5.03293 19.861 5.50846L10.411 21.5085C10.1301 21.984 9.51695 22.1418 9.04141 21.861C8.56588 21.5801 8.40807 20.9669 8.68893 20.4914L18.1389 4.49137C18.4198 4.01583 19.033 3.85802 19.5085 4.13888Z" fill="white"/>
<path id="Vector (Stroke)_5" fill-rule="evenodd" clip-rule="evenodd" d="M21.45 21C21.45 20.4477 21.8977 20 22.45 20H28.9999C29.5522 20 29.9999 20.4477 29.9999 21C29.9999 21.5523 29.5522 22 28.9999 22H22.45C21.8977 22 21.45 21.5523 21.45 21Z" fill="white"/>
<path id="Vector (Stroke)_6" fill-rule="evenodd" clip-rule="evenodd" d="M2 21C2 20.4477 2.44772 20 3 20H17.8125C18.3648 20 18.8125 20.4477 18.8125 21C18.8125 21.5523 18.3648 22 17.8125 22H3C2.44772 22 2 21.5523 2 21Z" fill="white"/>
</g>
</svg>
