<svg width="32" height="32" viewBox="0 0 32 32" fill="none" xmlns="http://www.w3.org/2000/svg">
<g id="Component 2">
<path id="Vector (Stroke)" fill-rule="evenodd" clip-rule="evenodd" d="M4.99514 2.25256C5.30206 2.08007 5.64908 1.99166 6.00112 1.99626C6.34963 2.00082 6.69084 2.09637 6.99096 2.27337L27.9482 14.2757C28.2555 14.4427 28.5126 14.6889 28.693 14.9889C28.8765 15.2942 28.9735 15.6437 28.9735 15.9999C28.9735 16.3562 28.8765 16.7057 28.693 17.011C28.5126 17.311 28.2555 17.5572 27.9482 17.7242L6.991 29.7265C6.69088 29.9035 6.34965 29.999 6.00112 30.0036C5.64907 30.0082 5.30206 29.9198 4.99514 29.7473C4.68822 29.5748 4.43226 29.3244 4.25315 29.0213C4.07403 28.7182 3.9781 28.3732 3.97505 28.0211L3.97498 28.0124L3.97501 3.97876C3.97806 3.62671 4.07403 3.2817 4.25315 2.97859C4.43226 2.67549 4.68822 2.42504 4.99514 2.25256ZM26.9345 15.9999L5.99054 4.00519L5.97501 3.99612V28.0037L5.99054 27.9947L26.9345 15.9999Z" fill="white"/>
<path id="Vector (Stroke)_2" fill-rule="evenodd" clip-rule="evenodd" d="M4.56792 2.5678C4.95844 2.17727 5.59161 2.17727 5.98213 2.5678L22.6946 19.2803C23.0852 19.6708 23.0852 20.304 22.6946 20.6945C22.3041 21.085 21.6709 21.085 21.2804 20.6945L4.56792 3.98201C4.17739 3.59149 4.17739 2.95832 4.56792 2.5678Z" fill="white"/>
<path id="Vector (Stroke)_3" fill-rule="evenodd" clip-rule="evenodd" d="M22.6946 11.3053C23.0852 11.6959 23.0852 12.329 22.6946 12.7196L5.98213 29.4321C5.59161 29.8226 4.95844 29.8226 4.56792 29.4321C4.17739 29.0415 4.17739 28.4084 4.56792 28.0178L21.2804 11.3053C21.6709 10.9148 22.3041 10.9148 22.6946 11.3053Z" fill="white"/>
</g>
</svg>
