<svg width="16" height="16" viewBox="0 0 16 16" fill="none" xmlns="http://www.w3.org/2000/svg">
<g id="Red">
<path id="Vector (Stroke)" fill-rule="evenodd" clip-rule="evenodd" d="M2 4.25C2 3.97386 2.22386 3.75 2.5 3.75H13.5C13.7761 3.75 14 3.97386 14 4.25C14 4.52614 13.7761 4.75 13.5 4.75H2.5C2.22386 4.75 2 4.52614 2 4.25Z" fill="#FC4747"/>
<path id="Vector (Stroke)_2" fill-rule="evenodd" clip-rule="evenodd" d="M5 6.75C5 6.47386 5.22386 6.25 5.5 6.25H13.5C13.7761 6.25 14 6.47386 14 6.75C14 7.02614 13.7761 7.25 13.5 7.25H5.5C5.22386 7.25 5 7.02614 5 6.75Z" fill="#FC4747"/>
<path id="Vector (Stroke)_3" fill-rule="evenodd" clip-rule="evenodd" d="M2 9.25C2 8.97386 2.22386 8.75 2.5 8.75H13.5C13.7761 8.75 14 8.97386 14 9.25C14 9.52614 13.7761 9.75 13.5 9.75H2.5C2.22386 9.75 2 9.52614 2 9.25Z" fill="#FC4747"/>
<path id="Vector (Stroke)_4" fill-rule="evenodd" clip-rule="evenodd" d="M5 11.75C5 11.4739 5.22386 11.25 5.5 11.25H13.5C13.7761 11.25 14 11.4739 14 11.75C14 12.0261 13.7761 12.25 13.5 12.25H5.5C5.22386 12.25 5 12.0261 5 11.75Z" fill="#FC4747"/>
</g>
</svg>
